<svg width="60" height="60" viewBox="0 0 60 60" fill="none" xmlns="http://www.w3.org/2000/svg">
<rect width="60" height="60" rx="30" fill="white"/>
<path fill-rule="evenodd" clip-rule="evenodd" d="M30 18C23.3727 18 18 23.3727 18 30C18 36.6273 23.3727 42 30 42H30.002C31.5775 42.0021 33.138 41.6928 34.5936 41.0899C36.0492 40.4869 37.3713 39.6023 38.484 38.4867C39.069 37.9002 40.0187 37.8989 40.6053 38.484C41.1918 39.069 41.1931 40.0187 40.608 40.6053C39.2163 42.0007 37.5624 43.1073 35.7416 43.8615C33.9208 44.6157 31.9689 45.0026 29.998 45L30 43.5V45C29.9993 45 29.9987 45 29.998 45C21.7147 44.9989 15 38.2835 15 30C15 21.7158 21.7158 15 30 15C34.1414 15 37.8933 16.6809 40.6065 19.3932C41.258 20.0447 42.2703 21.1453 43.1004 22.0606C43.5197 22.523 43.8997 22.9459 44.1747 23.2532C44.3123 23.4069 44.4238 23.5318 44.501 23.6185L44.6216 23.754C44.6216 23.754 44.6216 23.754 43.5 24.75L42.3784 25.746L42.2612 25.6144C42.1853 25.5292 42.0753 25.4059 41.9394 25.254C41.6674 24.9501 41.292 24.5322 40.8782 24.076C40.0423 23.1543 39.0775 22.1068 38.4855 21.5148C38.4854 21.5148 38.4856 21.5149 38.4855 21.5148M30 18C33.3135 18 36.3117 19.3417 38.4855 21.5148L30 18ZM44.496 25.8716C43.8765 26.4217 42.9284 26.3654 42.3784 25.746L43.5 24.75L44.6216 23.754C45.1716 24.3734 45.1154 25.3216 44.496 25.8716Z" fill="#339BE7"/>
<path fill-rule="evenodd" clip-rule="evenodd" d="M43.5 16.5C44.3284 16.5 45 17.1716 45 18V24.75C45 25.5784 44.3284 26.25 43.5 26.25H36.75C35.9216 26.25 35.25 25.5784 35.25 24.75C35.25 23.9216 35.9216 23.25 36.75 23.25H42V18C42 17.1716 42.6716 16.5 43.5 16.5Z" fill="#339BE7"/>
</svg>
