<svg width="24" height="24" viewBox="0 0 24 24" fill="none" xmlns="http://www.w3.org/2000/svg">
<path fill-rule="evenodd" clip-rule="evenodd" d="M13.2905 23.6666H10.7096C6.68861 23.6666 4.67811 23.6666 3.30721 22.4862C1.93629 21.3058 1.65196 19.3298 1.08332 15.3777L0.758088 13.1175C0.315408 10.0409 0.0940684 8.50265 0.724605 7.18742C1.35514 5.87218 2.69723 5.07271 5.3814 3.47376L6.99705 2.51133C9.43455 1.05932 10.6533 0.333313 12 0.333313C13.3467 0.333313 14.5655 1.05932 17.0029 2.51133L18.6186 3.47376C21.3028 5.07271 22.6449 5.87218 23.2754 7.18742C23.906 8.50265 23.6846 10.0409 23.2419 13.1175L22.9167 15.3777C22.348 19.3298 22.0637 21.3058 20.6928 22.4862C19.3219 23.6666 17.3114 23.6666 13.2905 23.6666ZM7.79717 16.1454C8.08494 15.7571 8.63295 15.6757 9.02117 15.9635C9.87096 16.5933 10.8966 16.9581 12.0001 16.9581C13.1037 16.9581 14.1293 16.5933 14.9791 15.9635C15.3674 15.6757 15.9153 15.7571 16.203 16.1454C16.4909 16.5335 16.4094 17.0816 16.0212 17.3693C14.8867 18.2103 13.4993 18.7081 12.0001 18.7081C10.501 18.7081 9.11356 18.2103 7.97908 17.3693C7.59085 17.0816 7.50941 16.5335 7.79717 16.1454Z" fill="white"/>
</svg>
