<svg width="28" height="28" viewBox="0 0 28 28" fill="none" xmlns="http://www.w3.org/2000/svg">
<path fill-rule="evenodd" clip-rule="evenodd" d="M24.6177 9.33737C24.5516 9.33321 24.4796 9.33323 24.405 9.33326L24.3864 9.33327H21.4598C19.0475 9.33327 16.9834 11.2321 16.9834 13.7083C16.9834 16.1844 19.0475 18.0833 21.4598 18.0833H24.3864H24.405C24.4796 18.0833 24.5516 18.0834 24.6177 18.0792C25.5976 18.0172 26.4641 17.2505 26.537 16.1795C26.5418 16.1093 26.5417 16.0335 26.5417 15.9634V15.9444V11.4722V11.4531C26.5417 11.3829 26.5418 11.3072 26.537 11.237C26.4641 10.166 25.5976 9.39925 24.6177 9.33737ZM21.2003 14.8749C21.8213 14.8749 22.3247 14.3526 22.3247 13.7083C22.3247 13.0639 21.8213 12.5416 21.2003 12.5416C20.5793 12.5416 20.0758 13.0639 20.0758 13.7083C20.0758 14.3526 20.5793 14.8749 21.2003 14.8749Z" fill="white"/>
<path fill-rule="evenodd" clip-rule="evenodd" d="M24.4042 19.8333C24.5781 19.8288 24.7099 19.9899 24.6626 20.1574C24.4285 20.9886 24.0566 21.6971 23.4602 22.2936C22.5871 23.1666 21.4799 23.5541 20.1121 23.7381C18.7831 23.9167 17.0849 23.9167 14.9408 23.9167H12.4758C10.3318 23.9167 8.63354 23.9167 7.30446 23.7381C5.93663 23.5541 4.82953 23.1666 3.95643 22.2936C3.08334 21.4205 2.69587 20.3133 2.51198 18.9455C2.33328 17.6164 2.33329 15.9182 2.33331 13.7741V13.6425C2.33329 11.4985 2.33328 9.80022 2.51198 8.47114C2.69587 7.10332 3.08334 5.99621 3.95643 5.12311C4.82953 4.25003 5.93663 3.86255 7.30446 3.67866C8.63354 3.49997 10.3318 3.49998 12.4758 3.5H14.9408C17.0849 3.49998 18.7831 3.49997 20.1121 3.67866C21.4799 3.86255 22.5871 4.25003 23.4602 5.12311C24.0566 5.71961 24.4283 6.42803 24.6626 7.25921C24.7099 7.42671 24.5781 7.58785 24.4042 7.58333L21.4596 7.58335C18.1503 7.58335 15.2333 10.1977 15.2333 13.7083C15.2333 17.2189 18.1503 19.8333 21.4596 19.8333H24.4042ZM6.70831 8.16667C6.22507 8.16667 5.83331 8.55842 5.83331 9.04167C5.83331 9.52491 6.22507 9.91667 6.70831 9.91667H11.375C11.8582 9.91667 12.25 9.52491 12.25 9.04167C12.25 8.55842 11.8582 8.16667 11.375 8.16667H6.70831Z" fill="white"/>
</svg>
