<svg width="28" height="28" viewBox="0 0 28 28" fill="none" xmlns="http://www.w3.org/2000/svg">
<path d="M25.6672 14.1222C25.6672 16.4298 24.9829 18.6855 23.7009 20.6042C22.4189 22.5228 20.5967 24.0182 18.4648 24.9013C16.3329 25.7843 13.9871 26.0154 11.7239 25.5652C9.46064 25.115 7.38175 24.0038 5.75007 22.3722C4.11839 20.7405 3.0072 18.6616 2.55702 16.3984C2.10684 14.1352 2.33789 11.7893 3.22095 9.65741C4.10401 7.52551 5.59942 5.70335 7.51807 4.42135C9.43673 3.13935 11.6925 2.45508 14 2.45508C15.5322 2.45508 17.0493 2.75686 18.4648 3.34319C19.8804 3.92952 21.1665 4.78891 22.2499 5.87231C23.3333 6.95571 24.1927 8.24188 24.779 9.65741C25.3654 11.0729 25.6672 12.5901 25.6672 14.1222ZM21.56 14.2107C21.5592 12.9 21.2141 11.6125 20.5591 10.4771C19.9042 9.34182 18.9624 8.39851 17.8282 7.74169C16.6939 7.08487 15.407 6.73761 14.0963 6.73467C12.7856 6.73174 11.4972 7.07324 10.36 7.72497C9.66973 8.12283 9.04697 8.6277 8.51495 9.22076V8.20834C8.51495 8.05357 8.45346 7.90513 8.34402 7.79569C8.23458 7.68625 8.08614 7.62476 7.93137 7.62476C7.77659 7.62476 7.62816 7.68625 7.51872 7.79569C7.40927 7.90513 7.34779 8.05357 7.34779 8.20834V10.6547C7.34818 10.8092 7.40984 10.9572 7.51924 11.0664C7.62864 11.1755 7.77685 11.2368 7.93137 11.2368H10.3747C10.5242 11.2292 10.6651 11.1646 10.7683 11.0561C10.8715 10.9476 10.929 10.8036 10.929 10.6539C10.929 10.5042 10.8715 10.3602 10.7683 10.2518C10.6651 10.1433 10.5242 10.0786 10.3747 10.0711H9.31811C9.91 9.38848 10.6418 8.84121 11.4639 8.4664C12.286 8.0916 13.179 7.89804 14.0825 7.89887C15.3305 7.89916 16.5503 8.26946 17.5878 8.96296C18.6253 9.65646 19.4339 10.642 19.9113 11.795C20.3887 12.948 20.5136 14.2167 20.27 15.4406C20.0265 16.6646 19.4255 17.7888 18.5431 18.6713C17.6607 19.5537 16.5364 20.1546 15.3125 20.3982C14.0886 20.6417 12.8199 20.5169 11.6669 20.0394C10.5139 19.562 9.52833 18.7534 8.83483 17.7159C8.14133 16.6784 7.77103 15.4586 7.77074 14.2107C7.77074 14.0559 7.70925 13.9074 7.59981 13.798C7.49037 13.6886 7.34193 13.6271 7.18716 13.6271C7.03238 13.6271 6.88395 13.6886 6.77451 13.798C6.66506 13.9074 6.60358 14.0559 6.60358 14.2107C6.60358 15.1928 6.79703 16.1653 7.17288 17.0727C7.54873 17.9801 8.09963 18.8046 8.79411 19.4991C9.4886 20.1936 10.3131 20.7445 11.2205 21.1203C12.1278 21.4962 13.1004 21.6896 14.0825 21.6896C15.0647 21.6896 16.0372 21.4962 16.9446 21.1203C17.852 20.7445 18.6765 20.1936 19.3709 19.4991C20.0654 18.8046 20.6163 17.9801 20.9922 17.0727C21.368 16.1653 21.56 15.1928 21.56 14.2107ZM14.5408 14.0648V10.1271C14.5333 9.97757 14.4686 9.83667 14.3602 9.7335C14.2517 9.63034 14.1077 9.57282 13.958 9.57282C13.8083 9.57282 13.6643 9.63034 13.5558 9.7335C13.4474 9.83667 13.3827 9.97757 13.3752 10.1271V14.3138C13.375 14.4028 13.3952 14.4907 13.4343 14.5706C13.4734 14.6506 13.5303 14.7205 13.6006 14.7751L15.8657 17.0387C15.9197 17.0937 15.984 17.1376 16.0551 17.1676C16.1261 17.1977 16.2024 17.2134 16.2795 17.2138C16.3567 17.2142 16.4331 17.1993 16.5044 17.1699C16.5758 17.1406 16.6406 17.0974 16.6951 17.0428C16.7497 16.9883 16.7929 16.9235 16.8222 16.8522C16.8515 16.7808 16.8664 16.7044 16.8661 16.6272C16.8657 16.5501 16.85 16.4738 16.8199 16.4028C16.7899 16.3318 16.746 16.2674 16.6909 16.2134L14.5408 14.0648Z" fill="white"/>
</svg>
