<svg width="28" height="28" viewBox="0 0 28 28" fill="none" xmlns="http://www.w3.org/2000/svg">
<path d="M11.0211 17.9634C10.6329 17.6756 10.0849 17.757 9.79713 18.1453C9.50938 18.5334 9.59081 19.0815 9.97904 19.3692C11.1135 20.2102 12.5009 20.708 14.0001 20.708C15.4993 20.708 16.8867 20.2102 18.0211 19.3692C18.4094 19.0815 18.4908 18.5334 18.203 18.1453C17.9152 17.757 17.3672 17.6756 16.9791 17.9634C16.1293 18.5932 15.1037 18.958 14.0001 18.958C12.8966 18.958 11.8708 18.5932 11.0211 17.9634Z" fill="#1C274C"/>
<path fill-rule="evenodd" clip-rule="evenodd" d="M14 1.45825C13.154 1.45825 12.3823 1.69055 11.5375 2.08487C10.7197 2.46658 9.774 3.02994 8.5888 3.73597L6.89059 4.74759C5.58496 5.52532 4.54457 6.14507 3.75684 6.7377C2.94366 7.34949 2.33332 7.97945 1.93558 8.80909C1.53765 9.63914 1.42979 10.5079 1.46439 11.5217C1.49788 12.5031 1.66956 13.6962 1.88482 15.1921L2.2259 17.5626C2.50286 19.4875 2.72262 21.0149 3.05097 22.2042C3.38943 23.43 3.86967 24.403 4.73626 25.1492C5.60214 25.8948 6.63814 26.2282 7.90573 26.3872C9.13679 26.5416 10.6899 26.5416 12.6493 26.5416H15.3506C17.3101 26.5416 18.8632 26.5416 20.0943 26.3872C21.3619 26.2282 22.3979 25.8948 23.2638 25.1492C24.1303 24.403 24.6106 23.43 24.949 22.2042C25.2773 21.015 25.4971 19.4875 25.7741 17.5626L26.1151 15.1921C26.3305 13.6961 26.5021 12.5031 26.5356 11.5217C26.5702 10.5079 26.4623 9.63914 26.0644 8.80909C25.6667 7.97945 25.0564 7.34949 24.2432 6.7377C23.4555 6.14507 22.415 5.52532 21.1094 4.74759L19.4112 3.73597C18.226 3.02994 17.2803 2.46658 16.4625 2.08487C15.6177 1.69055 14.8459 1.45825 14 1.45825ZM9.44484 5.263C10.6786 4.52806 11.5491 4.0107 12.2776 3.67064C12.9883 3.33895 13.4993 3.20825 14 3.20825C14.5008 3.20825 15.0117 3.33895 15.7223 3.67064C16.4509 4.0107 17.3214 4.52806 18.5551 5.263L20.1708 6.22543C21.5292 7.0346 22.4877 7.60698 23.1911 8.13614C23.8776 8.65264 24.2536 9.08002 24.4863 9.56562C24.719 10.0508 24.8157 10.6089 24.7866 11.4621C24.7568 12.3368 24.5999 13.4356 24.3759 14.9929L24.0506 17.2531C23.763 19.2518 23.5574 20.6688 23.2622 21.7384C22.9735 22.7836 22.6262 23.3888 22.1219 23.823C21.6168 24.258 20.9622 24.5147 19.8765 24.6509C18.767 24.79 17.3236 24.7916 15.2904 24.7916H12.7095C10.6764 24.7916 9.23306 24.79 8.1235 24.6509C7.03787 24.5147 6.38317 24.258 5.87814 23.823C5.37383 23.3888 5.02644 22.7836 4.73785 21.7384C4.44256 20.6688 4.23698 19.2518 3.9494 17.2531L3.62417 14.9928C3.4001 13.4356 3.24323 12.3368 3.21337 11.4621C3.18426 10.6089 3.281 10.0508 3.51361 9.56562C3.74641 9.08002 4.12238 8.65264 4.80893 8.13614C5.51229 7.60698 6.47083 7.0346 7.82919 6.22543L9.44484 5.263Z" fill="#1C274C"/>
</svg>
