<svg width="28" height="28" viewBox="0 0 28 28" fill="none" xmlns="http://www.w3.org/2000/svg">
<path d="M22.1666 14C22.1666 14.6444 21.6443 15.1667 21 15.1667C20.3556 15.1667 19.8333 14.6444 19.8333 14C19.8333 13.3557 20.3556 12.8334 21 12.8334C21.6443 12.8334 22.1666 13.3557 22.1666 14Z" fill="#1C274C"/>
<path fill-rule="evenodd" clip-rule="evenodd" d="M11.6008 3.79163H15.2324C17.3765 3.7916 19.0747 3.79159 20.4038 3.97029C21.7716 4.15418 22.8788 4.54165 23.7519 5.41474C24.8303 6.49319 25.174 7.93753 25.2988 9.81172C25.9722 10.1081 26.4807 10.7348 26.5367 11.5287C26.5418 11.5989 26.5416 11.6747 26.5416 11.7448C26.5416 11.7512 26.5416 11.7575 26.5416 11.7638V16.2361C26.5416 16.2424 26.5416 16.2487 26.5416 16.2551C26.5416 16.3252 26.5418 16.401 26.5367 16.4712C26.4807 17.2651 25.9722 17.8918 25.2988 18.1882C25.174 20.0624 24.8303 21.5068 23.7519 22.5852C22.8788 23.4582 21.7716 23.8457 20.4038 24.0297C19.0747 24.2083 17.3765 24.2083 15.2324 24.2083H11.6008C9.45678 24.2083 7.75854 24.2083 6.42946 24.0297C5.06163 23.8457 3.95453 23.4582 3.08143 22.5852C2.20834 21.7121 1.82087 20.6049 1.63698 19.2371C1.45828 17.9081 1.45829 16.2099 1.45831 14.0658V13.9342C1.45829 11.7901 1.45828 10.0918 1.63698 8.76277C1.82087 7.39495 2.20834 6.28784 3.08143 5.41474C3.95453 4.54165 5.06163 4.15418 6.42946 3.97029C7.75854 3.79159 9.45677 3.7916 11.6008 3.79163ZM23.5292 18.375H21.2692C18.7665 18.375 16.625 16.4761 16.625 14C16.625 11.5238 18.7665 9.62496 21.2692 9.62496H23.5292C23.3964 8.05993 23.096 7.23379 22.5144 6.65218C22.0207 6.15843 21.3444 5.86248 20.1707 5.70468C18.9717 5.54348 17.3912 5.54163 15.1666 5.54163H11.6666C9.44202 5.54163 7.86158 5.54348 6.66264 5.70468C5.48887 5.86248 4.81261 6.15843 4.31886 6.65218C3.82512 7.14592 3.52917 7.82218 3.37137 8.99595C3.21017 10.1949 3.20831 11.7754 3.20831 14C3.20831 16.2246 3.21017 17.805 3.37137 19.004C3.52917 20.1777 3.82512 20.854 4.31886 21.3477C4.81261 21.8415 5.48887 22.1375 6.66264 22.2952C7.86158 22.4564 9.44202 22.4583 11.6666 22.4583H15.1666C17.3912 22.4583 18.9717 22.4564 20.1707 22.2952C21.3444 22.1375 22.0207 21.8415 22.5144 21.3477C23.096 20.7662 23.3964 19.94 23.5292 18.375ZM6.12498 9.33329C6.12498 8.85005 6.51674 8.45829 6.99998 8.45829H11.6666C12.1499 8.45829 12.5416 8.85005 12.5416 9.33329C12.5416 9.81654 12.1499 10.2083 11.6666 10.2083H6.99998C6.51674 10.2083 6.12498 9.81654 6.12498 9.33329ZM24.4107 11.3752C24.387 11.375 24.356 11.375 24.3055 11.375H21.2692C19.6086 11.375 18.375 12.6101 18.375 14C18.375 15.3898 19.6086 16.625 21.2692 16.625H24.3055C24.356 16.625 24.387 16.625 24.4107 16.6247C24.4253 16.6245 24.433 16.6244 24.4366 16.6241L24.4392 16.624C24.6798 16.6094 24.7831 16.4472 24.7911 16.3495C24.7911 16.3495 24.7913 16.3422 24.7914 16.3317C24.7916 16.3109 24.7916 16.2834 24.7916 16.2361V11.7638C24.7916 11.7166 24.7916 11.689 24.7914 11.6683C24.7913 11.6577 24.7911 11.6504 24.7911 11.6504C24.7831 11.5528 24.6798 11.3905 24.4392 11.3758C24.4392 11.3758 24.4335 11.3755 24.4107 11.3752Z" fill="#1C274C"/>
</svg>
