<svg width="28" height="28" viewBox="0 0 28 28" fill="none" xmlns="http://www.w3.org/2000/svg">
<path fill-rule="evenodd" clip-rule="evenodd" d="M5.92513 5.91373C10.353 1.49209 17.551 1.5391 22.0059 5.99408C26.4628 10.451 26.5079 17.6532 22.0806 22.0806C17.6531 26.5079 10.4509 26.4628 5.99403 22.0059C3.35287 19.3648 2.26221 15.7615 2.73055 12.3447C2.79617 11.8659 3.2375 11.5311 3.71626 11.5967C4.19504 11.6623 4.52996 12.1036 4.46434 12.5824C4.0677 15.4761 4.99079 18.5278 7.23147 20.7685C11.0167 24.5538 17.1108 24.5754 20.8431 20.8431C24.5754 17.1108 24.5537 11.0167 20.7684 7.23151C16.9851 3.44821 10.8954 3.42462 7.16257 7.15117L8.03489 7.15555C8.51814 7.15798 8.90791 7.55169 8.90548 8.03494C8.90305 8.51818 8.50934 8.90796 8.02609 8.90553L5.05629 8.89061C4.57647 8.88819 4.18811 8.49982 4.1857 8.02002L4.17077 5.0502C4.16834 4.56696 4.55812 4.17325 5.04136 4.17081C5.52461 4.16838 5.91832 4.55817 5.92075 5.04141L5.92513 5.91373ZM13.9999 8.45824C14.4831 8.45824 14.8749 8.85 14.8749 9.33324V13.6375L17.5352 16.2979C17.8769 16.6396 17.8769 17.1936 17.5352 17.5352C17.1935 17.8769 16.6395 17.8769 16.2979 17.5352L13.1249 14.3624V9.33324C13.1249 8.85 13.5166 8.45824 13.9999 8.45824Z" fill="#1C274C"/>
</svg>
