<svg width="50" height="50" viewBox="0 0 50 50" fill="none" xmlns="http://www.w3.org/2000/svg">
<rect width="50" height="50" rx="25" fill="#BFDFF7"/>
<path d="M22.7105 17.2022L23.4677 18.5589C24.151 19.7833 23.8767 21.3895 22.8005 22.4657C22.8005 22.4657 21.4952 23.7712 23.8619 26.138C26.2279 28.504 27.5342 27.1995 27.5342 27.1995C28.6105 26.1232 30.2166 25.8489 31.441 26.5323L32.7978 27.2894C34.6467 28.3212 34.865 30.914 33.2399 32.5392C32.2634 33.5157 31.0671 34.2755 29.7447 34.3256C27.5186 34.4101 23.738 33.8467 19.9456 30.0543C16.1533 26.2619 15.5899 22.4814 15.6743 20.2552C15.7244 18.9328 16.4843 17.7366 17.4608 16.7601C19.0859 15.135 21.6787 15.3533 22.7105 17.2022Z" fill="#1C274C"/>
</svg>
