<svg width="20" height="20" viewBox="0 0 20 20" fill="none" xmlns="http://www.w3.org/2000/svg">
<path d="M10 13.3333C11.3807 13.3333 12.5 12.214 12.5 10.8333C12.5 9.45262 11.3807 8.33333 10 8.33333C8.61929 8.33333 7.5 9.45262 7.5 10.8333C7.5 12.214 8.61929 13.3333 10 13.3333Z" stroke="#339BE7" stroke-width="1.5"/>
<path d="M8.14841 17.5H11.8517C14.4526 17.5 15.7534 17.5 16.6876 16.8875C17.0907 16.6233 17.4378 16.2824 17.7092 15.8842C18.3334 14.9675 18.3334 13.69 18.3334 11.1367C18.3334 8.58249 18.3334 7.30583 17.7092 6.38916C17.4378 5.99092 17.0907 5.64999 16.6876 5.38583C16.0876 4.99166 15.3359 4.85083 14.1851 4.80083C13.6359 4.80083 13.1634 4.39249 13.0559 3.86333C12.9738 3.47572 12.7603 3.12836 12.4516 2.87995C12.1429 2.63155 11.758 2.49733 11.3617 2.49999H8.63841C7.81508 2.49999 7.10591 3.07083 6.94425 3.86333C6.83675 4.39249 6.36425 4.80083 5.81508 4.80083C4.66508 4.85083 3.91341 4.99249 3.31258 5.38583C2.90976 5.65005 2.56289 5.99097 2.29175 6.38916C1.66675 7.30583 1.66675 8.58249 1.66675 11.1367C1.66675 13.69 1.66675 14.9667 2.29091 15.8842C2.56091 16.2808 2.90758 16.6217 3.31258 16.8875C4.24675 17.5 5.54758 17.5 8.14841 17.5Z" stroke="#339BE7" stroke-width="1.5"/>
<path d="M15.8333 8.33333H15" stroke="#339BE7" stroke-width="1.5" stroke-linecap="round"/>
</svg>
