<svg width="30" height="30" viewBox="0 0 30 30" fill="none" xmlns="http://www.w3.org/2000/svg">
<rect width="30" height="30" rx="15" fill="white"/>
<path fill-rule="evenodd" clip-rule="evenodd" d="M15 22.5C15 22.0397 15.3731 21.6666 15.8333 21.6666H22.5C22.9602 21.6666 23.3333 22.0397 23.3333 22.5C23.3333 22.9602 22.9602 23.3333 22.5 23.3333H15.8333C15.3731 23.3333 15 22.9602 15 22.5Z" fill="#339BE7"/>
<path fill-rule="evenodd" clip-rule="evenodd" d="M22.3113 11.7499C23.6528 10.4031 23.5958 8.63456 22.5941 7.55148C22.1056 7.02337 21.4105 6.68604 20.623 6.66744C19.8327 6.64877 19.0139 6.95102 18.2583 7.58317C18.239 7.59933 18.2204 7.61637 18.2026 7.63422L7.39534 18.4846C6.92865 18.9531 6.66663 19.5875 6.66663 20.2489V21.6601C6.66663 22.578 7.40993 23.3333 8.33648 23.3333H9.7355C10.4003 23.3333 11.0377 23.0685 11.5068 22.5975L22.3113 11.7499ZM19.3392 9.82742C19.0138 9.50198 18.4861 9.50198 18.1607 9.82742C17.8353 10.1529 17.8353 10.6805 18.1607 11.0059L18.994 11.8393C19.3195 12.1647 19.8471 12.1647 20.1725 11.8393C20.498 11.5138 20.498 10.9862 20.1725 10.6607L19.3392 9.82742Z" fill="#339BE7"/>
</svg>
