<svg width="50" height="50" viewBox="0 0 50 50" fill="none" xmlns="http://www.w3.org/2000/svg">
<rect width="50" height="50" rx="25" fill="white"/>
<path fill-rule="evenodd" clip-rule="evenodd" d="M18.27 21.9099C18.27 18.1857 21.2958 15.1599 25.02 15.1599C28.7342 15.1599 31.77 18.1957 31.77 21.9099V24.7999C31.77 25.0148 31.8186 25.3292 31.9108 25.6653C32.0018 25.9973 32.1194 26.2923 32.2265 26.4796L33.3731 28.384C34.2787 29.8933 33.5548 31.8594 31.8865 32.4116C27.4226 33.9028 22.6062 33.9027 18.1423 32.4112L18.1395 32.4103C17.2971 32.1252 16.6653 31.5357 16.3829 30.7728C16.1001 30.0091 16.1963 29.1495 16.6573 28.3832L17.8058 26.4759C17.806 26.4754 17.8062 26.475 17.8065 26.4746C17.916 26.2905 18.036 25.9965 18.1285 25.663C18.2214 25.3286 18.27 25.0145 18.27 24.7999V21.9099ZM25.02 16.6599C22.1242 16.6599 19.77 19.0141 19.77 21.9099V24.7999C19.77 25.1953 19.6885 25.6512 19.5739 26.0643C19.4592 26.4775 19.2945 26.908 19.0942 27.244L19.0925 27.2468L17.9426 29.1566C17.6936 29.5703 17.6798 29.9557 17.7895 30.252C17.8995 30.5488 18.1623 30.8341 18.6191 30.989C22.7744 32.377 27.2571 32.3769 31.4123 30.9886L31.4146 30.9878C32.1655 30.7396 32.5011 29.8463 32.0869 29.1559C32.0869 29.1558 32.087 29.1559 32.0869 29.1559L30.9339 27.2408L30.9304 27.2347C30.7383 26.9017 30.5773 26.4743 30.4642 26.062C30.3514 25.6506 30.27 25.195 30.27 24.7999V21.9099C30.27 19.0241 27.9058 16.6599 25.02 16.6599Z" fill="#1C274C"/>
<path fill-rule="evenodd" clip-rule="evenodd" d="M22.4716 15.9263C22.8711 14.907 23.8628 14.1899 25.0199 14.1899C26.1771 14.1899 27.1688 14.907 27.5682 15.9263C27.6725 16.1924 27.6165 16.4946 27.4238 16.7056C27.2311 16.9167 26.9353 16.9999 26.6608 16.9202C26.3834 16.8397 26.1034 16.7789 25.8197 16.7445L25.8169 16.7441C24.9525 16.6361 24.1357 16.7002 23.3793 16.9201C23.1048 16.9999 22.8089 16.9168 22.6161 16.7057C22.4234 16.4947 22.3674 16.1924 22.4716 15.9263Z" fill="#1C274C"/>
<path fill-rule="evenodd" clip-rule="evenodd" d="M22.77 32.0601C22.77 32.6726 23.0248 33.2442 23.4303 33.6497L23.4304 33.6497C23.8359 34.0553 24.4075 34.3101 25.02 34.3101C26.2558 34.3101 27.27 33.2958 27.27 32.0601H28.77C28.77 34.1243 27.0842 35.8101 25.02 35.8101C23.9925 35.8101 23.0441 35.3849 22.3697 34.7104C21.6952 34.0359 21.27 33.0875 21.27 32.0601H22.77Z" fill="#1C274C"/>
</svg>
