<svg width="20" height="20" viewBox="0 0 20 20" fill="none" xmlns="http://www.w3.org/2000/svg">
<path d="M18.1056 5.6396C18.1667 5.6396 18.1667 5.6396 18.2276 5.6396L17.3112 2.09584C17.0668 1.05672 15.9665 0.445633 14.9888 0.751177L1.42321 4.35659C0.384358 4.60102 -0.226728 5.70098 0.078815 6.67872L1.23988 11.0785V8.45087C1.23988 6.86259 2.52316 5.57931 4.11199 5.57931H18.1056V5.6396Z" fill="#8D93A5"/>
<path d="M18.1056 6.61743H4.05061C3.01176 6.61743 2.15651 7.47323 2.15651 8.5118V17.4331C2.15651 18.4725 3.01203 19.3275 4.05061 19.3275H18.1056C19.1445 19.3275 19.9997 18.4717 19.9997 17.4331V8.51235C20.0002 7.47295 19.1445 6.61743 18.1056 6.61743ZM18.717 17.4339C18.717 17.8009 18.4117 18.0448 18.1062 18.0448H4.05115C3.6845 18.0448 3.44034 17.7395 3.44034 17.4337V15.1732H18.7783V17.4337L18.717 17.4339ZM18.717 10.7731H3.43979V8.51235C3.43979 8.14542 3.74534 7.90126 4.05061 7.90126H18.1056C18.4725 7.90126 18.7164 8.2068 18.7164 8.51235L18.717 10.7731Z" fill="#8D93A5"/>
</svg>
