<svg width="24" height="24" viewBox="0 0 24 24" fill="none" xmlns="http://www.w3.org/2000/svg">
<g clip-path="url(#clip0_60_1548)">
<path fill-rule="evenodd" clip-rule="evenodd" d="M7.01479 13.6801C6.72079 13.9726 6.72079 14.4526 7.01479 14.7451C7.30729 15.0376 7.78277 15.0376 8.07602 14.7451L9.75528 13.0651L11.4563 14.7675C11.7518 15.06 12.231 15.06 12.5265 14.7675C12.822 14.4675 12.822 13.9876 12.5265 13.6951L10.8255 11.9926L12.5047 10.3201C12.798 10.0276 12.798 9.54756 12.5047 9.25506C12.2115 8.96256 11.736 8.96256 11.4435 9.25506L9.76425 10.9351L8.03926 9.21011C7.74301 8.91761 7.26451 8.91761 6.96901 9.21011C6.67276 9.51011 6.67276 9.98256 6.96901 10.2826L8.694 12.0076L7.01479 13.6801ZM3.00304 3.75009H16.4617C16.6717 3.73509 16.8863 3.80261 17.0468 3.96011L23.7863 11.4151C23.9445 11.5726 24.0128 11.7826 24.0015 11.9851C24.0128 12.1951 23.9445 12.4051 23.7863 12.5626L17.0468 20.0175C16.8998 20.16 16.7078 20.2351 16.5158 20.2351V20.2501H3.00304C1.34479 20.2501 1.52588e-05 18.9076 1.52588e-05 17.2501V6.75009C1.52588e-05 5.09259 1.34479 3.75009 3.00304 3.75009Z" fill="#EA4A1C"/>
</g>
<defs>
<clipPath id="clip0_60_1548">
<rect width="24" height="24" fill="white" transform="matrix(-1 0 0 1 24 0)"/>
</clipPath>
</defs>
</svg>
