<svg width="50" height="50" viewBox="0 0 50 50" fill="none" xmlns="http://www.w3.org/2000/svg">
<rect width="50" height="50" rx="25" fill="#339BE7"/>
<path d="M24.8122 13.3333C21.7555 13.3333 19.2705 15.8183 19.2705 18.875C19.2705 21.8733 21.6155 24.3 24.6722 24.405C24.7655 24.3933 24.8588 24.3933 24.9288 24.405C24.9522 24.405 24.9638 24.405 24.9872 24.405C24.9988 24.405 24.9988 24.405 25.0105 24.405C27.9972 24.3 30.3422 21.8733 30.3538 18.875C30.3538 15.8183 27.8688 13.3333 24.8122 13.3333Z" fill="white"/>
<path d="M30.7399 27.507C27.4849 25.337 22.1766 25.337 18.8983 27.507C17.4166 28.4987 16.6 29.8404 16.6 31.2754C16.6 32.7104 17.4166 34.0403 18.8866 35.0203C20.52 36.117 22.6666 36.6653 24.8133 36.6653C26.9599 36.6653 29.1066 36.117 30.7399 35.0203C32.2099 34.0287 33.0266 32.6987 33.0266 31.252C33.0149 29.817 32.2099 28.487 30.7399 27.507Z" fill="white"/>
</svg>
