<svg width="25" height="25" viewBox="0 0 25 25" fill="none" xmlns="http://www.w3.org/2000/svg">
<path fill-rule="evenodd" clip-rule="evenodd" d="M5.01335 5.01335C6.72267 3.30403 9.041 2.34375 11.4583 2.34375C13.8757 2.34375 16.194 3.30403 17.9033 5.01335C19.6126 6.72267 20.5729 9.041 20.5729 11.4583C20.5729 13.6139 19.8094 15.6907 18.432 17.3272L22.4274 21.3226C22.7325 21.6277 22.7325 22.1223 22.4274 22.4274C22.1223 22.7325 21.6277 22.7325 21.3226 22.4274L17.3272 18.432C15.6907 19.8094 13.6139 20.5729 11.4583 20.5729C9.041 20.5729 6.72267 19.6126 5.01335 17.9033C3.30403 16.194 2.34375 13.8757 2.34375 11.4583C2.34375 9.041 3.30403 6.72267 5.01335 5.01335ZM11.4583 3.90625C9.4554 3.90625 7.53449 4.70191 6.1182 6.1182C4.70191 7.53449 3.90625 9.4554 3.90625 11.4583C3.90625 13.4613 4.70191 15.3822 6.1182 16.7985C7.53449 18.2148 9.4554 19.0104 11.4583 19.0104C13.4613 19.0104 15.3822 18.2148 16.7985 16.7985C18.2148 15.3822 19.0104 13.4613 19.0104 11.4583C19.0104 9.4554 18.2148 7.53449 16.7985 6.1182C15.3822 4.70191 13.4613 3.90625 11.4583 3.90625Z" fill="white"/>
</svg>
