<svg width="50" height="50" viewBox="0 0 50 50" fill="none" xmlns="http://www.w3.org/2000/svg">
<rect width="50" height="50" rx="25" fill="#BFDFF7"/>
<path d="M17.3751 31.3059L17.4599 31.0474L17.289 30.8358C15.7884 28.978 15 26.6899 15 24.25C15 18.3011 19.8011 13.5 25.75 13.5C31.6989 13.5 36.5 18.3011 36.5 24.25C36.5 30.1989 31.6989 35 25.75 35C24.3189 35 22.9631 34.7142 21.6781 34.1431L21.4739 34.0523L21.2701 34.1439L16.0951 36.4689L16.0262 36.4999C16.0186 36.5 16.0102 36.5 16 36.5C16.0003 36.5 16.0004 36.5 16.0004 36.5C16.0004 36.5 15.994 36.4997 15.9826 36.4972C15.9777 36.4962 15.9728 36.4949 15.9683 36.4935L15.9609 36.4788L15.9036 36.4214C15.8113 36.3292 15.7782 36.2164 15.8067 36.0858L17.3751 31.3059Z" fill="#0FA958" stroke="white"/>
<path d="M30.8252 27.5938C30.5898 28.2688 29.7073 28.8313 28.9425 28.9437C28.766 29 28.5895 29 28.3542 29C27.8835 29 27.1775 28.8875 25.942 28.3812C24.53 27.8187 23.118 26.6375 22.0002 25.1188V25.0625C21.6472 24.5563 21 23.6 21 22.5875C21 21.35 21.6472 20.7313 21.8825 20.45C22.1767 20.1688 22.5885 20 23.0592 20C23.1768 20 23.2357 20 23.3533 20C23.7652 20 24.0593 20.1125 24.3535 20.675L24.5888 21.125C24.7653 21.575 25.0007 22.0813 25.0595 22.1375C25.236 22.475 25.236 22.7562 25.0595 23.0375C25.0007 23.2062 24.883 23.3188 24.7653 23.4313C24.7065 23.5438 24.6477 23.6 24.5888 23.6C24.53 23.6562 24.53 23.6563 24.4712 23.7125C24.6477 23.9938 25.0007 24.5 25.4713 24.8937C26.1773 25.5125 26.7068 25.6812 27.001 25.7937C27.1187 25.6812 27.2363 25.4562 27.4128 25.2875L27.4717 25.175C27.7658 24.7813 28.2365 24.6688 28.7072 24.8375C28.9425 24.95 30.2368 25.5125 30.2368 25.5125L30.3545 25.5687C30.531 25.6812 30.7663 25.7375 30.884 25.9625C31.1193 26.4688 30.9428 27.2 30.8252 27.5938Z" fill="white"/>
</svg>
